<svg xmlns="http://www.w3.org/2000/svg" xmlns:xlink="http://www.w3.org/1999/xlink" width="12.479" height="15.369" viewBox="0 0 12.479 15.369"><defs><clipPath id="a"><path d="M11.7,5.459H7.019V.78a.78.78,0,0,0-1.56,0v4.68H.78a.78.78,0,0,0,0,1.56h4.68V11.7a.78.78,0,1,0,1.56,0V7.019H11.7a.78.78,0,0,0,0-1.56" fill="#fff"/></clipPath><clipPath id="b"><path d="M11.7,0H.78A.74.74,0,0,0,0,.693a.74.74,0,0,0,.78.693H11.7a.74.74,0,0,0,.78-.693A.74.74,0,0,0,11.7,0" fill="#fff"/></clipPath></defs><path d="M11.7,5.459H7.019V.78a.78.78,0,0,0-1.56,0v4.68H.78a.78.78,0,0,0,0,1.56h4.68V11.7a.78.78,0,1,0,1.56,0V7.019H11.7a.78.78,0,0,0,0-1.56" fill="#fff"/><g transform="translate(0 13.983)"><path d="M11.7,0H.78A.74.74,0,0,0,0,.693a.74.74,0,0,0,.78.693H11.7a.74.74,0,0,0,.78-.693A.74.74,0,0,0,11.7,0" fill="#fff"/></g></svg>