<svg xmlns="http://www.w3.org/2000/svg" xmlns:xlink="http://www.w3.org/1999/xlink" width="12" height="12" viewBox="0 0 12 12"><defs><clipPath id="a"><path d="M7.414,6l4.293-4.293A1,1,0,1,0,10.293.293L6,4.586,1.707.293A1,1,0,0,0,.293,1.707L4.586,6,.293,10.293a1,1,0,1,0,1.414,1.414L6,7.414l4.293,4.293a1,1,0,0,0,1.414-1.414Z" fill="#fff"/></clipPath></defs><path d="M7.414,6l4.293-4.293A1,1,0,1,0,10.293.293L6,4.586,1.707.293A1,1,0,0,0,.293,1.707L4.586,6,.293,10.293a1,1,0,1,0,1.414,1.414L6,7.414l4.293,4.293a1,1,0,0,0,1.414-1.414Z" fill="#fff"/></svg>